<svg width="449" height="29" viewBox="0 0 449 29" fill="none" xmlns="http://www.w3.org/2000/svg">
<path d="M8.26016 2.716C4.92816 2.716 2.53416 4.886 1.07816 9.226C1.05016 9.31 0.966157 9.352 0.826157 9.352C0.686157 9.324 0.616157 9.268 0.616157 9.184C0.728157 8.064 0.854157 6.622 0.994157 4.858C1.13416 3.066 1.20416 1.722 1.20416 0.825999C1.20416 0.686 1.27416 0.616 1.41416 0.616C1.58216 0.616 1.66616 0.686 1.66616 0.825999C1.66616 1.442 2.46416 1.75 4.06016 1.75C6.46816 1.834 9.28216 1.876 12.5022 1.876C14.1542 1.876 15.9042 1.848 17.7522 1.792L20.6082 1.75C21.6722 1.75 22.4422 1.68 22.9182 1.54C23.4222 1.4 23.7442 1.12 23.8842 0.699998C23.9122 0.587998 23.9962 0.531998 24.1362 0.531998C24.3042 0.531998 24.3882 0.587998 24.3882 0.699998C24.3042 1.54 24.2062 2.884 24.0942 4.732C24.0102 6.58 23.9682 8.064 23.9682 9.184C23.9682 9.268 23.8982 9.31 23.7582 9.31C23.6182 9.31 23.5342 9.268 23.5062 9.184C23.0862 7.028 22.3022 5.418 21.1542 4.354C20.0062 3.262 18.5922 2.716 16.9122 2.716C16.1002 2.716 15.5542 2.898 15.2742 3.262C15.0222 3.598 14.8962 4.256 14.8962 5.236V24.598C14.8962 25.466 14.9802 26.096 15.1482 26.488C15.3162 26.88 15.6382 27.146 16.1142 27.286C16.5902 27.426 17.3462 27.496 18.3822 27.496C18.4662 27.496 18.5082 27.58 18.5082 27.748C18.5082 27.916 18.4662 28 18.3822 28C17.3742 28 16.5762 27.986 15.9882 27.958L12.5022 27.916L9.10016 27.958C8.51216 27.986 7.70016 28 6.66416 28C6.58016 28 6.53816 27.916 6.53816 27.748C6.53816 27.58 6.58016 27.496 6.66416 27.496C7.67216 27.496 8.41416 27.426 8.89016 27.286C9.39416 27.146 9.73016 26.88 9.89816 26.488C10.0942 26.068 10.1922 25.438 10.1922 24.598V5.152C10.1922 4.2 10.0662 3.556 9.81416 3.22C9.56216 2.884 9.04416 2.716 8.26016 2.716ZM37.5584 24.598C37.5584 25.466 37.6284 26.096 37.7684 26.488C37.9084 26.88 38.1744 27.146 38.5664 27.286C38.9864 27.426 39.6444 27.496 40.5404 27.496C40.6244 27.496 40.6664 27.58 40.6664 27.748C40.6664 27.916 40.6244 28 40.5404 28C39.6164 28 38.8884 27.986 38.3564 27.958L35.1644 27.916L32.0564 27.958C31.4964 27.986 30.7404 28 29.7884 28C29.7324 28 29.7044 27.916 29.7044 27.748C29.7044 27.58 29.7324 27.496 29.7884 27.496C30.6844 27.496 31.3424 27.426 31.7624 27.286C32.1824 27.146 32.4624 26.88 32.6024 26.488C32.7704 26.068 32.8544 25.438 32.8544 24.598V5.152C32.8544 4.312 32.7704 3.696 32.6024 3.304C32.4624 2.912 32.1824 2.646 31.7624 2.506C31.3424 2.338 30.6844 2.254 29.7884 2.254C29.7324 2.254 29.7044 2.17 29.7044 2.002C29.7044 1.834 29.7324 1.75 29.7884 1.75L32.0564 1.792C33.3444 1.848 34.3804 1.876 35.1644 1.876C36.0324 1.876 37.1104 1.848 38.3984 1.792L40.5404 1.75C40.6244 1.75 40.6664 1.834 40.6664 2.002C40.6664 2.17 40.6244 2.254 40.5404 2.254C39.6724 2.254 39.0284 2.338 38.6084 2.506C38.1884 2.674 37.9084 2.968 37.7684 3.388C37.6284 3.78 37.5584 4.396 37.5584 5.236V24.598ZM49.8139 2.716L51.0319 2.8L50.5699 22.666C50.5419 24.178 50.8359 25.368 51.4519 26.236C52.0959 27.076 52.9919 27.496 54.1399 27.496C54.2239 27.496 54.2659 27.58 54.2659 27.748C54.2659 27.916 54.2239 28 54.1399 28C53.3839 28 52.7959 27.986 52.3759 27.958L50.0659 27.916L47.4199 27.958C46.9719 27.986 46.3699 28 45.6139 28C45.5299 28 45.4879 27.916 45.4879 27.748C45.4879 27.58 45.5299 27.496 45.6139 27.496C46.7619 27.496 47.6719 27.062 48.3439 26.194C49.0159 25.326 49.3659 24.15 49.3939 22.666L49.8139 2.716ZM79.4659 27.496C79.5219 27.496 79.5499 27.58 79.5499 27.748C79.5499 27.916 79.5219 28 79.4659 28C78.5139 28 77.7579 27.986 77.1979 27.958L74.0899 27.916L70.9399 27.958C70.4079 27.986 69.6799 28 68.7559 28C68.6719 28 68.6299 27.916 68.6299 27.748C68.6299 27.58 68.6719 27.496 68.7559 27.496C69.6519 27.496 70.3099 27.426 70.7299 27.286C71.1779 27.118 71.4719 26.838 71.6119 26.446C71.7519 26.054 71.7939 25.438 71.7379 24.598L70.7719 5.95L72.9139 2.59L62.2039 27.706C62.1479 27.818 62.0359 27.874 61.8679 27.874C61.6999 27.874 61.5879 27.818 61.5319 27.706L49.7299 5.236C49.1699 4.2 48.5819 3.444 47.9659 2.968C47.3779 2.492 46.6919 2.254 45.9079 2.254C45.8239 2.254 45.7819 2.17 45.7819 2.002C45.7819 1.834 45.8239 1.75 45.9079 1.75L47.8819 1.792C48.2739 1.82 48.7779 1.834 49.3939 1.834L51.6199 1.792C51.8719 1.764 52.1939 1.75 52.5859 1.75C52.9499 1.75 53.2299 1.876 53.4259 2.128C53.6219 2.38 53.9859 2.982 54.5179 3.934L63.9259 21.574L61.8259 25.354L71.6539 2.8C71.8219 2.408 71.9899 2.142 72.1579 2.002C72.3539 1.834 72.6059 1.75 72.9139 1.75C73.1659 1.75 73.4459 1.764 73.7539 1.792C74.0899 1.82 74.4679 1.834 74.8879 1.834L77.3659 1.792C77.7579 1.764 78.3179 1.75 79.0459 1.75C79.1299 1.75 79.1719 1.834 79.1719 2.002C79.1719 2.17 79.1299 2.254 79.0459 2.254C77.7299 2.254 76.7779 2.52 76.1899 3.052C75.6019 3.584 75.3359 4.41 75.3919 5.53L76.3999 24.598C76.4559 25.466 76.5539 26.096 76.6939 26.488C76.8619 26.88 77.1419 27.146 77.5339 27.286C77.9539 27.426 78.5979 27.496 79.4659 27.496ZM97.9636 28.504C95.3596 28.504 93.0356 27.902 90.9916 26.698C88.9756 25.466 87.4076 23.814 86.2876 21.742C85.1956 19.642 84.6496 17.36 84.6496 14.896C84.6496 12.012 85.3776 9.548 86.8336 7.504C88.2896 5.432 90.1516 3.878 92.4196 2.842C94.7156 1.806 97.0536 1.288 99.4336 1.288C102.094 1.288 104.432 1.918 106.448 3.178C108.464 4.41 110.004 6.048 111.068 8.092C112.16 10.136 112.706 12.306 112.706 14.602C112.706 17.15 112.034 19.488 110.69 21.616C109.346 23.744 107.54 25.424 105.272 26.656C103.032 27.888 100.596 28.504 97.9636 28.504ZM99.3496 27.454C100.918 27.454 102.318 27.006 103.55 26.11C104.81 25.186 105.79 23.856 106.49 22.12C107.19 20.356 107.54 18.256 107.54 15.82C107.54 13.244 107.148 10.948 106.364 8.932C105.58 6.888 104.446 5.292 102.962 4.144C101.478 2.996 99.7416 2.422 97.7536 2.422C95.2056 2.422 93.2456 3.388 91.8736 5.32C90.5016 7.224 89.8156 9.898 89.8156 13.342C89.8156 16.058 90.2216 18.494 91.0336 20.65C91.8736 22.778 93.0076 24.444 94.4356 25.648C95.8916 26.852 97.5296 27.454 99.3496 27.454ZM124.941 2.716C121.609 2.716 119.215 4.886 117.759 9.226C117.731 9.31 117.647 9.352 117.507 9.352C117.367 9.324 117.297 9.268 117.297 9.184C117.409 8.064 117.535 6.622 117.675 4.858C117.815 3.066 117.885 1.722 117.885 0.825999C117.885 0.686 117.955 0.616 118.095 0.616C118.263 0.616 118.347 0.686 118.347 0.825999C118.347 1.442 119.145 1.75 120.741 1.75C123.149 1.834 125.963 1.876 129.183 1.876C130.835 1.876 132.585 1.848 134.433 1.792L137.289 1.75C138.353 1.75 139.123 1.68 139.599 1.54C140.103 1.4 140.425 1.12 140.565 0.699998C140.593 0.587998 140.677 0.531998 140.817 0.531998C140.985 0.531998 141.069 0.587998 141.069 0.699998C140.985 1.54 140.887 2.884 140.775 4.732C140.691 6.58 140.649 8.064 140.649 9.184C140.649 9.268 140.579 9.31 140.439 9.31C140.299 9.31 140.215 9.268 140.187 9.184C139.767 7.028 138.983 5.418 137.835 4.354C136.687 3.262 135.273 2.716 133.593 2.716C132.781 2.716 132.235 2.898 131.955 3.262C131.703 3.598 131.577 4.256 131.577 5.236V24.598C131.577 25.466 131.661 26.096 131.829 26.488C131.997 26.88 132.319 27.146 132.795 27.286C133.271 27.426 134.027 27.496 135.063 27.496C135.147 27.496 135.189 27.58 135.189 27.748C135.189 27.916 135.147 28 135.063 28C134.055 28 133.257 27.986 132.669 27.958L129.183 27.916L125.781 27.958C125.193 27.986 124.381 28 123.345 28C123.261 28 123.219 27.916 123.219 27.748C123.219 27.58 123.261 27.496 123.345 27.496C124.353 27.496 125.095 27.426 125.571 27.286C126.075 27.146 126.411 26.88 126.579 26.488C126.775 26.068 126.873 25.438 126.873 24.598V5.152C126.873 4.2 126.747 3.556 126.495 3.22C126.243 2.884 125.725 2.716 124.941 2.716ZM167.512 5.236C167.512 4.396 167.428 3.78 167.26 3.388C167.092 2.968 166.77 2.674 166.294 2.506C165.818 2.338 165.062 2.254 164.026 2.254C163.942 2.254 163.9 2.17 163.9 2.002C163.9 1.834 163.942 1.75 164.026 1.75L166.084 1.792C167.484 1.848 168.744 1.876 169.864 1.876C170.62 1.876 171.698 1.848 173.098 1.792L175.45 1.75C175.534 1.75 175.576 1.834 175.576 2.002C175.576 2.17 175.534 2.254 175.45 2.254C174.498 2.254 173.784 2.338 173.308 2.506C172.86 2.646 172.552 2.912 172.384 3.304C172.244 3.696 172.174 4.312 172.174 5.152V24.598C172.174 25.438 172.244 26.068 172.384 26.488C172.552 26.88 172.86 27.146 173.308 27.286C173.756 27.426 174.47 27.496 175.45 27.496C175.534 27.496 175.576 27.58 175.576 27.748C175.576 27.916 175.534 28 175.45 28C174.47 28 173.686 27.986 173.098 27.958L169.864 27.916L166.084 27.958C165.58 27.986 164.894 28 164.026 28C163.942 28 163.9 27.916 163.9 27.748C163.9 27.58 163.942 27.496 164.026 27.496C165.062 27.496 165.818 27.426 166.294 27.286C166.77 27.146 167.092 26.88 167.26 26.488C167.428 26.096 167.512 25.466 167.512 24.598V5.236ZM151.468 13.762H169.654V14.938H151.468V13.762ZM149.284 5.152C149.284 4.312 149.2 3.696 149.032 3.304C148.864 2.912 148.556 2.646 148.108 2.506C147.688 2.338 147.002 2.254 146.05 2.254C145.966 2.254 145.924 2.17 145.924 2.002C145.924 1.834 145.966 1.75 146.05 1.75L148.318 1.792C149.606 1.848 150.642 1.876 151.426 1.876C152.49 1.876 153.722 1.848 155.122 1.792L157.432 1.75C157.488 1.75 157.516 1.834 157.516 2.002C157.516 2.17 157.488 2.254 157.432 2.254C156.424 2.254 155.682 2.338 155.206 2.506C154.73 2.674 154.394 2.968 154.198 3.388C154.03 3.78 153.946 4.396 153.946 5.236V24.598C153.946 25.438 154.03 26.068 154.198 26.488C154.366 26.88 154.688 27.146 155.164 27.286C155.64 27.426 156.396 27.496 157.432 27.496C157.488 27.496 157.516 27.58 157.516 27.748C157.516 27.916 157.488 28 157.432 28C156.452 28 155.668 27.986 155.08 27.958L151.426 27.916L148.276 27.958C147.716 27.986 146.946 28 145.966 28C145.91 28 145.882 27.916 145.882 27.748C145.882 27.58 145.91 27.496 145.966 27.496C146.946 27.496 147.66 27.426 148.108 27.286C148.556 27.146 148.864 26.88 149.032 26.488C149.2 26.068 149.284 25.438 149.284 24.598V5.152ZM197.402 7.546C198.158 6.286 198.536 5.208 198.536 4.312C198.536 3.64 198.326 3.136 197.906 2.8C197.514 2.436 196.94 2.254 196.184 2.254C196.1 2.254 196.058 2.17 196.058 2.002C196.058 1.834 196.1 1.75 196.184 1.75L198.41 1.792C199.698 1.848 200.846 1.876 201.854 1.876C202.33 1.876 202.904 1.848 203.576 1.792L205.13 1.75C205.186 1.75 205.214 1.834 205.214 2.002C205.214 2.17 205.186 2.254 205.13 2.254C204.262 2.254 203.198 2.8 201.938 3.892C200.678 4.956 199.558 6.3 198.578 7.924L193.118 17.038L192.236 16.324L197.402 7.546ZM183.416 6.58C182.38 4.956 181.512 3.836 180.812 3.22C180.14 2.576 179.566 2.254 179.09 2.254C179.006 2.254 178.964 2.17 178.964 2.002C178.964 1.834 179.006 1.75 179.09 1.75L180.392 1.792C181.008 1.848 181.442 1.876 181.694 1.876C182.674 1.876 184.088 1.848 185.936 1.792L188.708 1.75C188.764 1.75 188.792 1.834 188.792 2.002C188.792 2.17 188.764 2.254 188.708 2.254C188.232 2.254 187.854 2.366 187.574 2.59C187.322 2.814 187.196 3.108 187.196 3.472C187.196 3.92 187.392 4.452 187.784 5.068L193.832 14.602L189.8 16.492L183.416 6.58ZM194.21 14.602V24.598C194.21 25.466 194.28 26.096 194.42 26.488C194.56 26.88 194.826 27.146 195.218 27.286C195.638 27.426 196.296 27.496 197.192 27.496C197.276 27.496 197.318 27.58 197.318 27.748C197.318 27.916 197.276 28 197.192 28C196.268 28 195.54 27.986 195.008 27.958L191.858 27.916L188.75 27.958C188.19 27.986 187.434 28 186.482 28C186.426 28 186.398 27.916 186.398 27.748C186.398 27.58 186.426 27.496 186.482 27.496C187.378 27.496 188.036 27.426 188.456 27.286C188.876 27.146 189.156 26.88 189.296 26.488C189.464 26.068 189.548 25.438 189.548 24.598V14.98L194.21 14.602ZM232.62 28.168C231.724 28.168 230.66 28.126 229.428 28.042C228.98 28.014 228.42 27.986 227.748 27.958C227.104 27.93 226.376 27.916 225.564 27.916L222.456 27.958C221.896 27.986 221.14 28 220.188 28C220.132 28 220.104 27.916 220.104 27.748C220.104 27.58 220.132 27.496 220.188 27.496C221.084 27.496 221.742 27.426 222.162 27.286C222.582 27.146 222.862 26.88 223.002 26.488C223.17 26.068 223.254 25.438 223.254 24.598V5.152C223.254 4.312 223.17 3.696 223.002 3.304C222.862 2.912 222.582 2.646 222.162 2.506C221.77 2.338 221.14 2.254 220.272 2.254C220.188 2.254 220.146 2.17 220.146 2.002C220.146 1.834 220.188 1.75 220.272 1.75L222.498 1.792C223.786 1.848 224.808 1.876 225.564 1.876C226.712 1.876 227.888 1.834 229.092 1.75C230.548 1.694 231.528 1.666 232.032 1.666C234.86 1.666 237.366 2.226 239.55 3.346C241.762 4.466 243.47 5.992 244.674 7.924C245.878 9.856 246.48 12.026 246.48 14.434C246.48 17.15 245.85 19.558 244.59 21.658C243.358 23.73 241.678 25.34 239.55 26.488C237.45 27.608 235.14 28.168 232.62 28.168ZM232.2 27.202C233.992 27.202 235.574 26.754 236.946 25.858C238.318 24.934 239.382 23.576 240.138 21.784C240.922 19.992 241.314 17.85 241.314 15.358C241.314 12.978 240.95 10.822 240.222 8.89C239.494 6.93 238.458 5.39 237.114 4.27C235.77 3.15 234.216 2.59 232.452 2.59C230.716 2.59 229.526 2.758 228.882 3.094C228.238 3.43 227.916 4.144 227.916 5.236V24.136C227.916 25.256 228.21 26.054 228.798 26.53C229.386 26.978 230.52 27.202 232.2 27.202ZM274.623 7.126C274.623 5.614 274.273 4.424 273.573 3.556C272.901 2.688 271.949 2.254 270.717 2.254C270.661 2.254 270.633 2.17 270.633 2.002C270.633 1.834 270.661 1.75 270.717 1.75L272.733 1.792C273.797 1.848 274.651 1.876 275.295 1.876C275.827 1.876 276.597 1.848 277.605 1.792L279.537 1.75C279.593 1.75 279.621 1.834 279.621 2.002C279.621 2.17 279.593 2.254 279.537 2.254C278.445 2.254 277.591 2.688 276.975 3.556C276.359 4.424 276.051 5.614 276.051 7.126V18.802C276.051 20.762 275.617 22.484 274.749 23.968C273.881 25.452 272.649 26.6 271.053 27.412C269.485 28.196 267.665 28.588 265.593 28.588C263.521 28.588 261.687 28.196 260.091 27.412C258.495 26.628 257.235 25.494 256.311 24.01C255.415 22.498 254.967 20.734 254.967 18.718V5.152C254.967 4.312 254.883 3.696 254.715 3.304C254.575 2.912 254.295 2.646 253.875 2.506C253.483 2.338 252.853 2.254 251.985 2.254C251.901 2.254 251.859 2.17 251.859 2.002C251.859 1.834 251.901 1.75 251.985 1.75L254.211 1.792C255.499 1.848 256.521 1.876 257.277 1.876C258.117 1.876 259.181 1.848 260.469 1.792L262.611 1.75C262.695 1.75 262.737 1.834 262.737 2.002C262.737 2.17 262.695 2.254 262.611 2.254C261.743 2.254 261.099 2.338 260.679 2.506C260.287 2.674 260.007 2.968 259.839 3.388C259.699 3.78 259.629 4.396 259.629 5.236V17.248C259.629 20.58 260.287 23.044 261.603 24.64C262.919 26.236 264.781 27.034 267.189 27.034C269.513 27.034 271.333 26.334 272.649 24.934C273.965 23.506 274.623 21.476 274.623 18.844V7.126ZM304.532 28C303.888 28 302.698 26.838 300.962 24.514C299.226 22.162 297.126 18.9 294.662 14.728L298.526 13.552C300.85 17.08 302.782 19.838 304.322 21.826C305.89 23.814 307.276 25.256 308.48 26.152C309.684 27.048 310.86 27.496 312.008 27.496C312.064 27.496 312.092 27.58 312.092 27.748C312.092 27.916 312.064 28 312.008 28H304.532ZM295.502 1.624C298.05 1.624 300.024 2.1 301.424 3.052C302.824 3.976 303.524 5.278 303.524 6.958C303.524 8.554 303.062 9.996 302.138 11.284C301.242 12.572 300.066 13.58 298.61 14.308C297.154 15.008 295.628 15.358 294.032 15.358C292.94 15.358 292.17 15.344 291.722 15.316V24.598C291.722 25.466 291.792 26.096 291.932 26.488C292.072 26.88 292.338 27.146 292.73 27.286C293.15 27.426 293.808 27.496 294.704 27.496C294.76 27.496 294.788 27.58 294.788 27.748C294.788 27.916 294.76 28 294.704 28C293.78 28 293.052 27.986 292.52 27.958L289.328 27.916L286.262 27.958C285.702 27.986 284.946 28 283.994 28C283.91 28 283.868 27.916 283.868 27.748C283.868 27.58 283.91 27.496 283.994 27.496C284.89 27.496 285.534 27.426 285.926 27.286C286.346 27.146 286.626 26.88 286.766 26.488C286.934 26.068 287.018 25.438 287.018 24.598V5.152C287.018 4.312 286.948 3.696 286.808 3.304C286.668 2.912 286.388 2.646 285.968 2.506C285.548 2.338 284.904 2.254 284.036 2.254C283.98 2.254 283.952 2.17 283.952 2.002C283.952 1.834 283.98 1.75 284.036 1.75L286.262 1.792C287.55 1.848 288.572 1.876 289.328 1.876C290.28 1.876 291.274 1.834 292.31 1.75C292.674 1.722 293.122 1.694 293.654 1.666C294.214 1.638 294.83 1.624 295.502 1.624ZM298.736 8.554C298.736 6.258 298.4 4.676 297.728 3.808C297.056 2.94 296.09 2.506 294.83 2.506C293.71 2.506 292.912 2.716 292.436 3.136C291.96 3.556 291.722 4.256 291.722 5.236V14.14C292.394 14.252 293.206 14.308 294.158 14.308C295.782 14.308 296.944 13.86 297.644 12.964C298.372 12.04 298.736 10.57 298.736 8.554ZM318.024 5.152C318.024 4.312 317.94 3.696 317.772 3.304C317.632 2.912 317.352 2.646 316.932 2.506C316.54 2.338 315.91 2.254 315.042 2.254C314.958 2.254 314.916 2.17 314.916 2.002C314.916 1.834 314.958 1.75 315.042 1.75L317.268 1.792C318.556 1.848 319.578 1.876 320.334 1.876C321.174 1.876 322.238 1.848 323.526 1.792L325.668 1.75C325.752 1.75 325.794 1.834 325.794 2.002C325.794 2.17 325.752 2.254 325.668 2.254C324.8 2.254 324.156 2.338 323.736 2.506C323.344 2.674 323.064 2.968 322.896 3.388C322.756 3.78 322.686 4.396 322.686 5.236V24.598C322.686 25.466 322.756 26.096 322.896 26.488C323.036 26.88 323.302 27.146 323.694 27.286C324.114 27.426 324.772 27.496 325.668 27.496C325.78 27.496 325.836 27.58 325.836 27.748C325.836 27.916 325.78 28 325.668 28C324.744 28 324.016 27.986 323.484 27.958L320.334 27.916L317.226 27.958C316.666 27.986 315.91 28 314.958 28C314.902 28 314.874 27.916 314.874 27.748C314.874 27.58 314.902 27.496 314.958 27.496C315.854 27.496 316.512 27.426 316.932 27.286C317.352 27.146 317.632 26.88 317.772 26.488C317.94 26.068 318.024 25.438 318.024 24.598V5.152ZM323.358 14.14L326.718 10.906L333.144 19.558C334.964 22.162 336.322 24.01 337.218 25.102C338.142 26.166 338.884 26.838 339.444 27.118C340.004 27.37 340.718 27.496 341.586 27.496C341.67 27.496 341.712 27.58 341.712 27.748C341.712 27.916 341.67 28 341.586 28H336.882C336.434 28 336.056 28.014 335.748 28.042C335.44 28.07 335.188 28.084 334.992 28.084C334.544 28.084 334.152 27.986 333.816 27.79C333.508 27.566 333.116 27.174 332.64 26.614C332.192 26.054 331.38 24.976 330.204 23.38C330.064 23.184 329.896 22.974 329.7 22.75C329.532 22.498 329.336 22.218 329.112 21.91L323.358 14.14ZM330.582 6.076C331.394 5.264 331.8 4.522 331.8 3.85C331.8 3.346 331.576 2.954 331.128 2.674C330.68 2.394 330.05 2.254 329.238 2.254C329.154 2.254 329.112 2.17 329.112 2.002C329.112 1.834 329.154 1.75 329.238 1.75L331.212 1.792C332.444 1.848 333.592 1.876 334.656 1.876C335.804 1.876 336.994 1.848 338.226 1.792L340.116 1.75C340.2 1.75 340.242 1.834 340.242 2.002C340.242 2.17 340.2 2.254 340.116 2.254C338.828 2.254 337.414 2.632 335.874 3.388C334.334 4.116 332.934 5.096 331.674 6.328L320.88 17.29L319.746 17.164L330.582 6.076ZM357.215 28.504C354.611 28.504 352.287 27.902 350.243 26.698C348.227 25.466 346.659 23.814 345.539 21.742C344.447 19.642 343.901 17.36 343.901 14.896C343.901 12.012 344.629 9.548 346.085 7.504C347.541 5.432 349.403 3.878 351.671 2.842C353.967 1.806 356.305 1.288 358.685 1.288C361.345 1.288 363.683 1.918 365.699 3.178C367.715 4.41 369.255 6.048 370.319 8.092C371.411 10.136 371.957 12.306 371.957 14.602C371.957 17.15 371.285 19.488 369.941 21.616C368.597 23.744 366.791 25.424 364.523 26.656C362.283 27.888 359.847 28.504 357.215 28.504ZM358.601 27.454C360.169 27.454 361.569 27.006 362.801 26.11C364.061 25.186 365.041 23.856 365.741 22.12C366.441 20.356 366.791 18.256 366.791 15.82C366.791 13.244 366.399 10.948 365.615 8.932C364.831 6.888 363.697 5.292 362.213 4.144C360.729 2.996 358.993 2.422 357.005 2.422C354.457 2.422 352.497 3.388 351.125 5.32C349.753 7.224 349.067 9.898 349.067 13.342C349.067 16.058 349.473 18.494 350.285 20.65C351.125 22.778 352.259 24.444 353.687 25.648C355.143 26.852 356.781 27.454 358.601 27.454ZM403.045 1.75C403.129 1.75 403.171 1.834 403.171 2.002C403.171 2.17 403.129 2.254 403.045 2.254C402.037 2.254 401.071 2.702 400.147 3.598C399.223 4.494 398.481 5.698 397.921 7.21L390.151 27.958C390.123 28.07 389.969 28.126 389.689 28.126C389.409 28.126 389.255 28.07 389.227 27.958L378.517 5.236C378.013 4.228 377.509 3.486 377.005 3.01C376.501 2.506 375.941 2.254 375.325 2.254C375.241 2.254 375.199 2.17 375.199 2.002C375.199 1.834 375.241 1.75 375.325 1.75C375.745 1.75 376.039 1.764 376.207 1.792C376.767 1.848 377.495 1.876 378.391 1.876C380.799 1.876 382.843 1.848 384.523 1.792C384.971 1.764 385.531 1.75 386.203 1.75C386.287 1.75 386.329 1.834 386.329 2.002C386.329 2.17 386.287 2.254 386.203 2.254C385.363 2.254 384.705 2.436 384.229 2.8C383.781 3.136 383.557 3.626 383.557 4.27C383.557 4.746 383.711 5.32 384.019 5.992L391.663 22.288L389.689 25.732L396.745 7.084C397.025 6.3 397.165 5.628 397.165 5.068C397.165 4.2 396.899 3.514 396.367 3.01C395.863 2.506 395.121 2.254 394.141 2.254C394.057 2.254 394.015 2.17 394.015 2.002C394.015 1.834 394.057 1.75 394.141 1.75L396.199 1.792C397.375 1.848 398.425 1.876 399.349 1.876C399.881 1.876 400.539 1.848 401.323 1.792L403.045 1.75ZM414.476 24.598C414.476 25.466 414.546 26.096 414.686 26.488C414.826 26.88 415.092 27.146 415.484 27.286C415.904 27.426 416.562 27.496 417.458 27.496C417.542 27.496 417.584 27.58 417.584 27.748C417.584 27.916 417.542 28 417.458 28C416.534 28 415.806 27.986 415.274 27.958L412.082 27.916L408.974 27.958C408.414 27.986 407.658 28 406.706 28C406.65 28 406.622 27.916 406.622 27.748C406.622 27.58 406.65 27.496 406.706 27.496C407.602 27.496 408.26 27.426 408.68 27.286C409.1 27.146 409.38 26.88 409.52 26.488C409.688 26.068 409.772 25.438 409.772 24.598V5.152C409.772 4.312 409.688 3.696 409.52 3.304C409.38 2.912 409.1 2.646 408.68 2.506C408.26 2.338 407.602 2.254 406.706 2.254C406.65 2.254 406.622 2.17 406.622 2.002C406.622 1.834 406.65 1.75 406.706 1.75L408.974 1.792C410.262 1.848 411.298 1.876 412.082 1.876C412.95 1.876 414.028 1.848 415.316 1.792L417.458 1.75C417.542 1.75 417.584 1.834 417.584 2.002C417.584 2.17 417.542 2.254 417.458 2.254C416.59 2.254 415.946 2.338 415.526 2.506C415.106 2.674 414.826 2.968 414.686 3.388C414.546 3.78 414.476 4.396 414.476 5.236V24.598ZM439.331 1.288C440.647 1.288 441.977 1.4 443.321 1.624C444.693 1.82 445.785 2.086 446.597 2.422C446.849 2.506 447.003 2.618 447.059 2.758C447.143 2.87 447.199 3.08 447.227 3.388L447.773 9.226C447.773 9.31 447.703 9.366 447.563 9.394C447.423 9.422 447.325 9.38 447.269 9.268C446.485 6.972 445.365 5.222 443.909 4.018C442.453 2.786 440.703 2.17 438.659 2.17C436.755 2.17 435.047 2.688 433.535 3.724C432.051 4.732 430.875 6.188 430.007 8.092C429.167 9.996 428.747 12.222 428.747 14.77C428.747 17.346 429.181 19.614 430.049 21.574C430.945 23.506 432.163 25.004 433.703 26.068C435.271 27.104 437.063 27.622 439.079 27.622C441.011 27.622 442.635 27.104 443.951 26.068C445.267 25.004 446.513 23.268 447.689 20.86C447.717 20.776 447.801 20.748 447.941 20.776C448.081 20.804 448.151 20.86 448.151 20.944L447.521 26.152C447.465 26.488 447.409 26.712 447.353 26.824C447.297 26.908 447.143 27.006 446.891 27.118C444.315 28.042 441.711 28.504 439.079 28.504C436.083 28.504 433.395 27.944 431.015 26.824C428.663 25.676 426.815 24.08 425.471 22.036C424.127 19.992 423.455 17.668 423.455 15.064C423.455 12.404 424.141 10.038 425.513 7.966C426.913 5.866 428.817 4.228 431.225 3.052C433.661 1.876 436.363 1.288 439.331 1.288Z" fill="#FBF8F5"/>
</svg>
